<svg width="257" height="155" xmlns="http://www.w3.org/2000/svg" xmlns:xlink="http://www.w3.org/1999/xlink" xml:space="preserve" overflow="hidden"><defs><clipPath id="clip0"><rect x="167" y="582" width="257" height="155"/></clipPath></defs><g clip-path="url(#clip0)" transform="translate(-167 -582)"><path d="M66.7419 78.8133 292.407 78.8133 306.474 50.6799 80.8086 50.5802 66.7419 78.8133ZM97.2696 172.591 290.213 172.591 276.146 200.725 97.2696 200.725C72.628 200.725 52.6752 180.772 52.6752 156.13 52.6752 131.489 72.628 111.536 97.2696 111.536L132.486 111.536 118.419 139.669 97.2696 139.669C88.1911 139.669 80.8086 147.052 80.8086 156.13 80.8086 165.308 88.1911 172.591 97.2696 172.591Z" fill-rule="evenodd" transform="matrix(1 0 0 1.00461 118.996 532.831)"/><path d="M143.161 139.769 157.228 111.636 204.216 111.636 190.15 139.769Z" fill="#26A9E0" fill-rule="evenodd" transform="matrix(1 0 0 1.00461 118.996 532.831)"/><path d="M214.991 139.769 229.057 111.636 275.946 111.636 261.88 139.769Z" fill="#26A9E0" fill-rule="evenodd" transform="matrix(1 0 0 1.00461 118.996 532.831)"/></g></svg>