<svg width="816" height="173" xmlns="http://www.w3.org/2000/svg" xmlns:xlink="http://www.w3.org/1999/xlink" xml:space="preserve" overflow="hidden"><g transform="translate(-1331 -494)"><path d="M609.07 108.331C609.07 101.878 614.356 96.5917 620.809 96.5917L635.912 96.5917 646.004 76.477 620.878 76.477C603.303 76.477 589.024 90.7563 589.024 108.331 589.024 125.906 603.303 140.185 620.878 140.185L762.573 140.185 762.573 120.07 620.809 120.07C614.287 120.07 609.07 114.853 609.07 108.331Z" fill="#FFFFFF" fill-rule="evenodd" transform="matrix(1.00137 0 0 1 1331.1 494)"/><path d="M604.402 32.8837 762.436 32.8837 762.436 52.9984 604.402 52.9984Z" fill="#FFFFFF" fill-rule="evenodd" transform="matrix(1.00137 0 0 1 1331.1 494)"/><path d="M663.647 76.477 653.624 96.5917 687.126 96.5917 697.217 76.477Z" fill="#FFFFFF" fill-rule="evenodd" transform="matrix(1.00137 0 0 1 1331.1 494)"/><path d="M704.906 96.5917 738.408 96.5917 748.5 76.477 714.998 76.477Z" fill="#FFFFFF" fill-rule="evenodd" transform="matrix(1.00137 0 0 1 1331.1 494)"/><path d="M529.229 32.8151 425.292 32.8151 425.292 52.9298 529.229 52.9298C547.765 52.9298 562.731 67.9643 562.731 86.4314 562.731 104.898 547.696 119.933 529.229 119.933L425.292 119.933 425.292 140.048 529.229 140.048C558.886 140.048 582.914 116.02 582.914 86.3627 582.914 56.7056 558.886 32.8151 529.229 32.8151Z" fill="#FFFFFF" fill-rule="evenodd" transform="matrix(1.00137 0 0 1 1331.1 494)"/><path d="M271.857 120.002C253.321 120.002 238.356 104.967 238.356 86.5 238.356 68.0329 253.321 52.9298 271.857 52.9298L375.794 52.9298 375.794 32.8151 271.857 32.8151C242.2 32.8151 218.172 56.8429 218.172 86.5 218.172 116.157 242.2 140.185 271.857 140.185L375.794 140.185 375.794 120.07 271.857 120.07Z" fill="#FFFFFF" fill-rule="evenodd" transform="matrix(1.00137 0 0 1 1331.1 494)"/><path d="M156.181 32.8151 52.1746 32.8151 52.1746 52.9298 156.112 52.9298C174.648 52.9298 189.613 67.9643 189.613 86.4314 189.613 104.898 174.579 119.933 156.112 119.933L52.1746 119.933 52.1746 140.048 156.112 140.048C185.769 140.048 209.797 116.02 209.797 86.3627 209.797 56.7056 185.769 32.8151 156.181 32.8151Z" fill="#FFFFFF" fill-rule="evenodd" transform="matrix(1.00137 0 0 1 1331.1 494)"/><path d="M390.486 32.8151 410.6 32.8151 410.6 140.116 390.486 140.116Z" fill="#FFFFFF" fill-rule="evenodd" transform="matrix(1.00137 0 0 1 1331.1 494)"/></g></svg>