<?xml version="1.0" encoding="UTF-8"?>
<svg version="1.1" xmlns="http://www.w3.org/2000/svg" width="2912" height="874">
<path d="M0 0 C0.96923588 -0.00352842 1.93847175 -0.00705684 2.93707842 -0.01069218 C4.55661056 -0.00889551 4.55661056 -0.00889551 6.20886052 -0.00706255 C7.91912882 -0.01104029 7.91912882 -0.01104029 9.663948 -0.01509839 C12.85715161 -0.02148228 16.05032224 -0.02332765 19.24353111 -0.02332116 C22.70703322 -0.02438662 26.17052473 -0.03117229 29.63402104 -0.03722787 C36.51668825 -0.04832705 43.39935036 -0.05395798 50.28202495 -0.05793675 C58.5214789 -0.06293711 66.7609229 -0.07366359 75.00037099 -0.08441848 C94.92453873 -0.11008138 114.84871035 -0.12509271 134.77288988 -0.13792895 C141.37364923 -0.14218206 147.9744083 -0.14674776 154.5751673 -0.15151227 C189.66633461 -0.17677838 224.75750239 -0.19882814 259.8486768 -0.21124041 C267.98408395 -0.2141618 276.11949108 -0.21712929 284.25489819 -0.22014582 C285.77100225 -0.22070219 285.77100225 -0.22070219 287.31773467 -0.22126979 C320.06249898 -0.23341584 352.80720942 -0.26434125 385.55194845 -0.30606735 C419.21266299 -0.34888235 452.8733491 -0.3754852 486.53409161 -0.38071512 C491.29178731 -0.38145555 496.04948296 -0.38236623 500.80717862 -0.3833729 C501.7435271 -0.38356352 502.67987559 -0.38375413 503.64459828 -0.38395052 C518.69760959 -0.38746048 533.75055339 -0.40774237 548.80353993 -0.43416954 C563.94785069 -0.4603551 579.09208367 -0.4680244 594.23641382 -0.45706825 C603.22631087 -0.45110501 612.21594356 -0.45893124 621.20580044 -0.48689909 C627.2224197 -0.5042262 633.23885989 -0.50313898 639.25548323 -0.4875314 C642.67656434 -0.47916753 646.09673751 -0.48117681 649.51783536 -0.50014286 C664.63041876 -0.57876771 678.19697158 0.18914531 692.55030835 5.12995183 C693.27366843 5.37359923 693.99702852 5.61724662 694.7423086 5.86827727 C705.12710292 9.39014141 714.91284762 13.90996185 724.55030835 19.12995183 C725.17792065 19.46865301 725.80553296 19.80735418 726.45216382 20.15631902 C737.10676377 25.99817986 746.35130953 33.22662237 755.55030835 41.12995183 C757.02757397 42.39258855 757.02757397 42.39258855 758.53468335 43.68073308 C763.65213132 48.17013063 768.25687052 52.85113483 772.55030835 58.12995183 C772.95894116 58.6262409 773.36757397 59.12252996 773.7885896 59.63385808 C780.4360388 67.73723276 786.34578465 76.00597201 791.55030835 85.12995183 C791.88127514 85.70294012 792.21224194 86.2759284 792.55323803 86.86627996 C802.54020525 104.27896347 808.38113462 122.53590527 812.55030835 142.12995183 C812.69871167 142.82701238 812.84711499 143.52407293 813.00001538 144.24225652 C821.5916172 187.5549123 809.70923481 235.65767837 785.97218335 272.21979558 C767.2866657 299.63469637 741.71096342 321.39640277 711.55030835 335.12995183 C710.53347973 335.59594793 710.53347973 335.59594793 709.49610913 336.07135808 C701.57104887 339.65102149 693.57400377 342.61274965 685.17530835 344.87995183 C684.49428051 345.06646307 683.81325268 345.2529743 683.11158764 345.44513738 C666.61321711 349.62647541 650.40386732 350.5679603 633.46609509 350.515221 C631.18960655 350.5192364 628.91312002 350.52456753 626.63663727 350.53108674 C620.43182484 350.54513989 614.2271445 350.54083839 608.02232575 350.53337359 C602.0022207 350.52910096 595.98214895 350.53898085 589.96205402 350.54852426 C577.65818475 350.56758696 565.35434519 350.57317494 553.05046284 350.5712074 C540.87189455 350.56936308 528.69335966 350.57461744 516.51479924 350.58888853 C515.37563447 350.59022334 515.37563447 350.59022334 514.21345627 350.59158513 C510.35583099 350.59615551 506.4982059 350.60087256 502.64058089 350.60565995 C494.79868483 350.61535562 486.95678772 350.62408843 479.11489022 350.63252199 C477.93768707 350.63378837 477.93768707 350.63378837 476.73670205 350.63508033 C458.08806749 350.65489726 439.43942941 350.66491401 420.79078686 350.67365301 C419.97556733 350.67403767 419.1603478 350.67442234 418.32042464 350.67481866 C411.71512715 350.67793475 405.10982965 350.68102589 398.50453213 350.68407637 C379.46876417 350.69288281 360.43299804 350.70410374 341.39723217 350.71662176 C340.58139718 350.71715511 339.76556219 350.71768846 338.92500492 350.71823797 C320.29272487 350.73045785 301.66044856 350.74475566 283.02817452 350.76417482 C282.24482252 350.76498968 281.46147053 350.76580453 280.65438059 350.76664408 C272.83348163 350.77481135 265.01258302 350.7832486 257.19168484 350.79213398 C240.40661599 350.81110682 223.62157096 350.82410999 206.83649082 350.82512873 C194.60704744 350.82592229 182.37762415 350.83332206 170.14818896 350.84765846 C163.52596567 350.85519378 156.90377314 350.85917126 150.28154385 350.85454023 C144.21780825 350.85034028 138.15415102 350.85529056 132.0904268 350.86744808 C129.89900729 350.87021176 127.70758036 350.86960936 125.51616342 350.86526699 C104.3950693 350.82679979 86.55225099 352.48675033 70.17530835 367.27448308 C55.56040951 382.16094254 54.25393369 400.14979368 54.23146069 419.91193426 C54.2221488 421.79531056 54.21197827 423.67868278 54.20101941 425.56205022 C54.17384752 430.64593882 54.15860819 435.72979991 54.14559138 440.8137418 C54.12990449 446.13754557 54.10313212 451.46129362 54.07756054 456.78505743 C54.03087085 466.85342954 53.99407939 476.92181226 53.96088767 486.99023694 C53.91542954 500.60484047 53.85459272 514.21937486 53.79463971 527.83392084 C53.70066541 549.26589641 53.62716201 570.69789219 53.55030835 592.12995183 C16.59030835 592.12995183 -20.36969165 592.12995183 -58.44969165 592.12995183 C-58.57060076 542.82142853 -58.57060076 542.82142853 -58.59617603 522.06159246 C-58.61393448 507.76216161 -58.6347414 493.46278402 -58.67601001 479.1633991 C-58.70605938 468.74639938 -58.72530128 458.32944313 -58.73195714 447.91240126 C-58.73584325 442.4047019 -58.74487478 436.89712683 -58.76688182 431.3894676 C-58.7874934 426.18810015 -58.79347652 420.98690625 -58.7890147 415.78550184 C-58.78982902 413.89310798 -58.79564582 412.0007073 -58.80730808 410.1083492 C-58.96595126 382.9988553 -53.99942469 357.69928883 -42.44969165 333.12995183 C-42.1042229 332.39502508 -41.75875415 331.66009832 -41.40281665 330.90290105 C-34.08027519 315.63280642 -24.16946894 302.32926174 -12.44969165 290.12995183 C-11.98514575 289.6343073 -11.52059986 289.13866277 -11.04197681 288.62799871 C17.18704565 258.58275399 57.43552498 240.4687074 98.55030835 238.12995183 C105.89444918 237.93747395 113.24381289 237.98789179 120.58982861 237.99192083 C122.85044831 237.98950069 125.11106758 237.98663778 127.37168622 237.9833715 C133.56980008 237.97563975 139.76790285 237.97400023 145.96602094 237.97332036 C151.96845058 237.9716663 157.97087397 237.96532864 163.97330004 237.95899891 C175.49797897 237.94694102 187.0226573 237.93826964 198.54734071 237.93196076 C216.84302816 237.92191183 235.13869708 237.90265034 253.43437337 237.88041837 C260.47959534 237.87188932 267.52481763 237.86362253 274.57003987 237.85531461 C275.74402884 237.8539271 275.74402884 237.8539271 276.94173476 237.85251156 C295.56011808 237.83053463 314.17850346 237.81073667 332.79689038 237.79206121 C334.01843365 237.79083169 334.01843365 237.79083169 335.26465456 237.78957733 C354.26538821 237.77049176 373.26612175 237.75352881 392.26686108 237.74121892 C393.08417335 237.74068926 393.90148562 237.74015959 394.74356493 237.73961387 C401.33187234 237.73536207 407.92017978 237.73118587 414.50848725 237.72702907 C441.6832768 237.70982466 468.8580409 237.68260675 496.03280859 237.6438687 C499.87170163 237.63840718 503.71059484 237.63307417 507.54948819 237.62782705 C508.68270588 237.62627548 508.68270588 237.62627548 509.83881685 237.62469256 C521.98577705 237.60838336 534.1327194 237.60283984 546.27968951 237.60152939 C558.48997666 237.60002363 570.7002154 237.58784821 582.9104812 237.56477298 C589.52265546 237.55258618 596.13476184 237.54559188 602.74695218 237.55148542 C608.80308098 237.55678673 614.85902962 237.5482842 620.91512837 237.52892904 C623.10276407 237.5243603 625.29041743 237.52481463 627.4780495 237.53087743 C648.11727459 237.58295982 665.97767735 235.18009442 681.49049389 220.31501043 C694.40795058 207.43043375 701.28489624 192.12136485 701.98780835 173.75495183 C701.4890783 156.65266737 694.81570414 139.96460444 682.6245271 127.88776433 C668.19921689 114.50249427 651.04725041 109.97345078 631.72557938 109.99128664 C630.53226414 109.98844442 629.33894891 109.9856022 628.1094726 109.98267385 C624.79533997 109.97578303 621.48125777 109.97333274 618.16712159 109.97274643 C614.56238788 109.97101522 610.95766539 109.96352863 607.35293823 109.95676988 C601.03473696 109.94571707 594.71653967 109.93834274 588.39833081 109.93337095 C579.00337778 109.92596143 569.60843866 109.91287746 560.21349383 109.89862519 C544.40988645 109.8748119 528.6062766 109.85560887 512.80266011 109.83902586 C497.15323624 109.8225896 481.50381699 109.80410884 465.85439885 109.78289258 C464.88166458 109.78157498 463.90893032 109.78025737 462.90671927 109.77889984 C457.96677041 109.77219783 453.0268216 109.76545924 448.08687281 109.75870658 C413.08974447 109.71093304 378.09261183 109.66775102 343.09547436 109.62726629 C309.09449461 109.58792341 275.09351843 109.54650258 241.09254467 109.50226629 C240.04463811 109.50090376 238.99673154 109.49954123 237.91707023 109.49813741 C227.39364077 109.48445213 216.87021137 109.47072459 206.34678201 109.45696607 C184.90900412 109.4289389 163.47122586 109.40119388 142.03344738 109.37361944 C141.04775519 109.37235124 140.062063 109.37108304 139.04650134 109.36977641 C73.21444281 109.28510873 7.38237616 109.20701821 -58.44969165 109.12995183 C-57.24874542 105.46362288 -56.00666887 101.99414561 -54.27975452 98.54283941 C-53.84932849 97.67779287 -53.41890247 96.81274633 -52.97543323 95.92148626 C-52.50730716 94.99085363 -52.03918109 94.060221 -51.55686939 93.10138738 C-51.06075153 92.10725332 -50.56463367 91.11311925 -50.05348194 90.08885992 C-48.41731565 86.812831 -46.77541898 83.53971189 -45.1332854 80.26667058 C-43.99481517 77.99092234 -42.85664072 75.71502609 -41.71874988 73.43898809 C-39.33637261 68.67579628 -36.95141373 63.9139107 -34.56419361 59.15314519 C-31.80217837 53.64487779 -29.04438052 48.13451565 -26.28896171 42.62294585 C-23.63724789 37.31890872 -20.98321024 32.01603754 -18.3279742 26.71376264 C-17.19792005 24.45684544 -16.06835658 22.19968249 -14.93928325 19.94227445 C-13.3659094 16.79768323 -11.78991408 13.65442062 -10.21311939 10.51154363 C-9.50789394 9.10041296 -9.50789394 9.10041296 -8.78842151 7.66077459 C-8.14701221 6.38435346 -8.14701221 6.38435346 -7.49264514 5.08214605 C-6.93378698 3.96694349 -6.93378698 3.96694349 -6.36363876 2.82921159 C-4.65962728 -0.33897847 -3.5046743 0.00400889 0 0 Z " fill="#000000" transform="translate(1053.4496916532516,14.87004816532135)"/>
<path d="M0 0 C0.96923588 -0.00352842 1.93847175 -0.00705684 2.93707842 -0.01069218 C4.55661056 -0.00889551 4.55661056 -0.00889551 6.20886052 -0.00706255 C7.91912882 -0.01104029 7.91912882 -0.01104029 9.663948 -0.01509839 C12.85715161 -0.02148228 16.05032224 -0.02332765 19.24353111 -0.02332116 C22.70703322 -0.02438662 26.17052473 -0.03117229 29.63402104 -0.03722787 C36.51668825 -0.04832705 43.39935036 -0.05395798 50.28202495 -0.05793675 C58.5214789 -0.06293711 66.7609229 -0.07366359 75.00037099 -0.08441848 C94.92453873 -0.11008138 114.84871035 -0.12509271 134.77288988 -0.13792895 C141.37364923 -0.14218206 147.9744083 -0.14674776 154.5751673 -0.15151227 C189.66633461 -0.17677838 224.75750239 -0.19882814 259.8486768 -0.21124041 C267.98408395 -0.2141618 276.11949108 -0.21712929 284.25489819 -0.22014582 C285.77100225 -0.22070219 285.77100225 -0.22070219 287.31773467 -0.22126979 C320.06249898 -0.23341584 352.80720942 -0.26434125 385.55194845 -0.30606735 C419.21266299 -0.34888235 452.8733491 -0.3754852 486.53409161 -0.38071512 C491.29178731 -0.38145555 496.04948296 -0.38236623 500.80717862 -0.3833729 C501.7435271 -0.38356352 502.67987559 -0.38375413 503.64459828 -0.38395052 C518.69760959 -0.38746048 533.75055339 -0.40774237 548.80353993 -0.43416954 C563.94785069 -0.4603551 579.09208367 -0.4680244 594.23641382 -0.45706825 C603.22631087 -0.45110501 612.21594356 -0.45893124 621.20580044 -0.48689909 C627.2224197 -0.5042262 633.23885989 -0.50313898 639.25548323 -0.4875314 C642.67656434 -0.47916753 646.09673751 -0.48117681 649.51783536 -0.50014286 C664.63041876 -0.57876771 678.19697158 0.18914531 692.55030835 5.12995183 C693.27366843 5.37359923 693.99702852 5.61724662 694.7423086 5.86827727 C705.12710292 9.39014141 714.91284762 13.90996185 724.55030835 19.12995183 C725.17792065 19.46865301 725.80553296 19.80735418 726.45216382 20.15631902 C737.10676377 25.99817986 746.35130953 33.22662237 755.55030835 41.12995183 C757.02757397 42.39258855 757.02757397 42.39258855 758.53468335 43.68073308 C763.65213132 48.17013063 768.25687052 52.85113483 772.55030835 58.12995183 C772.95894116 58.6262409 773.36757397 59.12252996 773.7885896 59.63385808 C780.4360388 67.73723276 786.34578465 76.00597201 791.55030835 85.12995183 C791.88127514 85.70294012 792.21224194 86.2759284 792.55323803 86.86627996 C802.54020525 104.27896347 808.38113462 122.53590527 812.55030835 142.12995183 C812.69871167 142.82701238 812.84711499 143.52407293 813.00001538 144.24225652 C821.5916172 187.5549123 809.70923481 235.65767837 785.97218335 272.21979558 C767.2866657 299.63469637 741.71096342 321.39640277 711.55030835 335.12995183 C710.53347973 335.59594793 710.53347973 335.59594793 709.49610913 336.07135808 C701.57104887 339.65102149 693.57400377 342.61274965 685.17530835 344.87995183 C684.49428051 345.06646307 683.81325268 345.2529743 683.11158764 345.44513738 C666.61321711 349.62647541 650.40386732 350.5679603 633.46609509 350.515221 C631.18960655 350.5192364 628.91312002 350.52456753 626.63663727 350.53108674 C620.43182484 350.54513989 614.2271445 350.54083839 608.02232575 350.53337359 C602.0022207 350.52910096 595.98214895 350.53898085 589.96205402 350.54852426 C577.65818475 350.56758696 565.35434519 350.57317494 553.05046284 350.5712074 C540.87189455 350.56936308 528.69335966 350.57461744 516.51479924 350.58888853 C515.37563447 350.59022334 515.37563447 350.59022334 514.21345627 350.59158513 C510.35583099 350.59615551 506.4982059 350.60087256 502.64058089 350.60565995 C494.79868483 350.61535562 486.95678772 350.62408843 479.11489022 350.63252199 C477.93768707 350.63378837 477.93768707 350.63378837 476.73670205 350.63508033 C458.08806749 350.65489726 439.43942941 350.66491401 420.79078686 350.67365301 C419.97556733 350.67403767 419.1603478 350.67442234 418.32042464 350.67481866 C411.71512715 350.67793475 405.10982965 350.68102589 398.50453213 350.68407637 C379.46876417 350.69288281 360.43299804 350.70410374 341.39723217 350.71662176 C340.58139718 350.71715511 339.76556219 350.71768846 338.92500492 350.71823797 C320.29272487 350.73045785 301.66044856 350.74475566 283.02817452 350.76417482 C282.24482252 350.76498968 281.46147053 350.76580453 280.65438059 350.76664408 C272.83348163 350.77481135 265.01258302 350.7832486 257.19168484 350.79213398 C240.40661599 350.81110682 223.62157096 350.82410999 206.83649082 350.82512873 C194.60704744 350.82592229 182.37762415 350.83332206 170.14818896 350.84765846 C163.52596567 350.85519378 156.90377314 350.85917126 150.28154385 350.85454023 C144.21780825 350.85034028 138.15415102 350.85529056 132.0904268 350.86744808 C129.89900729 350.87021176 127.70758036 350.86960936 125.51616342 350.86526699 C104.3950693 350.82679979 86.55225099 352.48675033 70.17530835 367.27448308 C55.56040951 382.16094254 54.25393369 400.14979368 54.23146069 419.91193426 C54.2221488 421.79531056 54.21197827 423.67868278 54.20101941 425.56205022 C54.17384752 430.64593882 54.15860819 435.72979991 54.14559138 440.8137418 C54.12990449 446.13754557 54.10313212 451.46129362 54.07756054 456.78505743 C54.03087085 466.85342954 53.99407939 476.92181226 53.96088767 486.99023694 C53.91542954 500.60484047 53.85459272 514.21937486 53.79463971 527.83392084 C53.70066541 549.26589641 53.62716201 570.69789219 53.55030835 592.12995183 C16.59030835 592.12995183 -20.36969165 592.12995183 -58.44969165 592.12995183 C-58.57060076 542.82142853 -58.57060076 542.82142853 -58.59617603 522.06159246 C-58.61393448 507.76216161 -58.6347414 493.46278402 -58.67601001 479.1633991 C-58.70605938 468.74639938 -58.72530128 458.32944313 -58.73195714 447.91240126 C-58.73584325 442.4047019 -58.74487478 436.89712683 -58.76688182 431.3894676 C-58.7874934 426.18810015 -58.79347652 420.98690625 -58.7890147 415.78550184 C-58.78982902 413.89310798 -58.79564582 412.0007073 -58.80730808 410.1083492 C-58.96595126 382.9988553 -53.99942469 357.69928883 -42.44969165 333.12995183 C-42.1042229 332.39502508 -41.75875415 331.66009832 -41.40281665 330.90290105 C-34.08027519 315.63280642 -24.16946894 302.32926174 -12.44969165 290.12995183 C-11.98514575 289.6343073 -11.52059986 289.13866277 -11.04197681 288.62799871 C17.18704565 258.58275399 57.43552498 240.4687074 98.55030835 238.12995183 C105.89444918 237.93747395 113.24381289 237.98789179 120.58982861 237.99192083 C122.85044831 237.98950069 125.11106758 237.98663778 127.37168622 237.9833715 C133.56980008 237.97563975 139.76790285 237.97400023 145.96602094 237.97332036 C151.96845058 237.9716663 157.97087397 237.96532864 163.97330004 237.95899891 C175.49797897 237.94694102 187.0226573 237.93826964 198.54734071 237.93196076 C216.84302816 237.92191183 235.13869708 237.90265034 253.43437337 237.88041837 C260.47959534 237.87188932 267.52481763 237.86362253 274.57003987 237.85531461 C275.74402884 237.8539271 275.74402884 237.8539271 276.94173476 237.85251156 C295.56011808 237.83053463 314.17850346 237.81073667 332.79689038 237.79206121 C334.01843365 237.79083169 334.01843365 237.79083169 335.26465456 237.78957733 C354.26538821 237.77049176 373.26612175 237.75352881 392.26686108 237.74121892 C393.08417335 237.74068926 393.90148562 237.74015959 394.74356493 237.73961387 C401.33187234 237.73536207 407.92017978 237.73118587 414.50848725 237.72702907 C441.6832768 237.70982466 468.8580409 237.68260675 496.03280859 237.6438687 C499.87170163 237.63840718 503.71059484 237.63307417 507.54948819 237.62782705 C508.68270588 237.62627548 508.68270588 237.62627548 509.83881685 237.62469256 C521.98577705 237.60838336 534.1327194 237.60283984 546.27968951 237.60152939 C558.48997666 237.60002363 570.7002154 237.58784821 582.9104812 237.56477298 C589.52265546 237.55258618 596.13476184 237.54559188 602.74695218 237.55148542 C608.80308098 237.55678673 614.85902962 237.5482842 620.91512837 237.52892904 C623.10276407 237.5243603 625.29041743 237.52481463 627.4780495 237.53087743 C648.11727459 237.58295982 665.97767735 235.18009442 681.49049389 220.31501043 C694.40795058 207.43043375 701.28489624 192.12136485 701.98780835 173.75495183 C701.4890783 156.65266737 694.81570414 139.96460444 682.6245271 127.88776433 C668.19921689 114.50249427 651.04725041 109.97345078 631.72557938 109.99128664 C630.53226414 109.98844442 629.33894891 109.9856022 628.1094726 109.98267385 C624.79533997 109.97578303 621.48125777 109.97333274 618.16712159 109.97274643 C614.56238788 109.97101522 610.95766539 109.96352863 607.35293823 109.95676988 C601.03473696 109.94571707 594.71653967 109.93834274 588.39833081 109.93337095 C579.00337778 109.92596143 569.60843866 109.91287746 560.21349383 109.89862519 C544.40988645 109.8748119 528.6062766 109.85560887 512.80266011 109.83902586 C497.15323624 109.8225896 481.50381699 109.80410884 465.85439885 109.78289258 C464.88166458 109.78157498 463.90893032 109.78025737 462.90671927 109.77889984 C457.96677041 109.77219783 453.0268216 109.76545924 448.08687281 109.75870658 C413.08974447 109.71093304 378.09261183 109.66775102 343.09547436 109.62726629 C309.09449461 109.58792341 275.09351843 109.54650258 241.09254467 109.50226629 C240.04463811 109.50090376 238.99673154 109.49954123 237.91707023 109.49813741 C227.39364077 109.48445213 216.87021137 109.47072459 206.34678201 109.45696607 C184.90900412 109.4289389 163.47122586 109.40119388 142.03344738 109.37361944 C141.04775519 109.37235124 140.062063 109.37108304 139.04650134 109.36977641 C73.21444281 109.28510873 7.38237616 109.20701821 -58.44969165 109.12995183 C-57.24874542 105.46362288 -56.00666887 101.99414561 -54.27975452 98.54283941 C-53.84932849 97.67779287 -53.41890247 96.81274633 -52.97543323 95.92148626 C-52.50730716 94.99085363 -52.03918109 94.060221 -51.55686939 93.10138738 C-51.06075153 92.10725332 -50.56463367 91.11311925 -50.05348194 90.08885992 C-48.41731565 86.812831 -46.77541898 83.53971189 -45.1332854 80.26667058 C-43.99481517 77.99092234 -42.85664072 75.71502609 -41.71874988 73.43898809 C-39.33637261 68.67579628 -36.95141373 63.9139107 -34.56419361 59.15314519 C-31.80217837 53.64487779 -29.04438052 48.13451565 -26.28896171 42.62294585 C-23.63724789 37.31890872 -20.98321024 32.01603754 -18.3279742 26.71376264 C-17.19792005 24.45684544 -16.06835658 22.19968249 -14.93928325 19.94227445 C-13.3659094 16.79768323 -11.78991408 13.65442062 -10.21311939 10.51154363 C-9.50789394 9.10041296 -9.50789394 9.10041296 -8.78842151 7.66077459 C-8.14701221 6.38435346 -8.14701221 6.38435346 -7.49264514 5.08214605 C-6.93378698 3.96694349 -6.93378698 3.96694349 -6.36363876 2.82921159 C-4.65962728 -0.33897847 -3.5046743 0.00400889 0 0 Z " fill="#000000" transform="translate(140.44969165325165,14.87004816532135)"/>
<path d="M0 0 C38.28 0 76.56 0 116 0 C115.99887207 13.30159424 115.99774414 26.60318848 115.99658203 40.30786133 C115.99718985 82.86549344 116.02722694 125.42305923 116.07579029 167.98066257 C116.08330636 174.59086791 116.09056184 181.2010735 116.09765625 187.8112793 C116.099073 189.127255 116.10048975 190.4432307 116.10194944 191.79908445 C116.12426934 213.10857437 116.12547831 234.41800166 116.11888863 255.72750417 C116.11259706 277.59221142 116.12898487 299.45681681 116.16643608 321.32149333 C116.18883134 334.81373977 116.1935263 348.30575418 116.17559664 361.79800829 C116.16499684 371.04953642 116.17642197 380.30087386 116.20516153 389.55236278 C116.22109394 394.89045518 116.22732024 400.2280939 116.20739174 405.56618309 C116.18934945 410.45650371 116.19905785 415.34596702 116.23053883 420.23621234 C116.23706265 422.00220295 116.23353293 423.76826645 116.21874608 425.5342072 C116.10672011 439.98582026 119.58167977 449.10686935 129.65625 459.71875 C143.22704841 472.92766045 158.70315892 478.48173285 177.44137096 478.38476086 C179.42061124 478.39248572 179.42061124 478.39248572 181.43983617 478.40036663 C185.08925481 478.41419305 188.73844667 478.40952353 192.38787445 478.40173779 C196.36297011 478.39657749 200.33801905 478.40884221 204.31310016 478.41886932 C211.27535888 478.43404506 218.23755556 478.43816248 225.1998291 478.43499184 C235.55241577 478.43032757 245.90493228 478.44282714 256.25750511 478.45882157 C273.67322757 478.4852433 291.08893412 478.49777815 308.50467491 478.50238609 C325.74730151 478.50699366 342.98990602 478.51778105 360.23252296 478.53681374 C361.30479924 478.53799386 362.37707551 478.53917399 363.481845 478.54038988 C368.92744132 478.54641534 374.37303751 478.55255113 379.81863365 478.55872939 C418.38518678 478.60228636 456.95173938 478.63199974 495.51831055 478.65356445 C532.98413893 478.67454537 570.44995416 478.70180152 607.91577148 478.73754883 C609.07072397 478.73864831 610.22567646 478.73974778 611.41562751 478.74088058 C623.01418334 478.75192896 634.61273906 478.76310486 646.21129468 478.7743742 C669.83868246 478.79732804 693.46607101 478.81943072 717.09346008 478.84101868 C718.17979832 478.8420123 719.26613656 478.84300591 720.38539413 478.84402964 C792.92358532 478.91027912 865.46179194 478.95668757 938 479 C937.40908244 482.5779872 936.45380444 485.46445936 934.82969666 488.70137024 C934.37395767 489.6169722 933.91821869 490.53257416 933.44866943 491.47592163 C932.94732483 492.46782501 932.44598022 493.45972839 931.92944336 494.48168945 C931.40260452 495.53580521 930.87576569 496.58992096 930.33296204 497.67597961 C928.89111021 500.55795401 927.44397565 503.43719913 925.99443507 506.31531167 C924.47933996 509.3267212 922.97106134 512.3415408 921.46205139 515.35600281 C918.60528116 521.06022693 915.74240796 526.761365 912.87732083 532.46141547 C909.61505961 538.9523812 906.35962979 545.4467643 903.10476482 551.94144118 C896.4107624 565.29810629 889.70820776 578.65046296 883 592 C815.02105958 592.03428981 747.04211812 592.06608729 679.06317139 592.08468628 C678.05656045 592.08496239 677.04994951 592.08523851 676.01283521 592.08552299 C654.13482393 592.09150924 632.25681257 592.09704954 610.37880106 592.10213066 C599.64934392 592.10462526 588.9198868 592.10721838 578.19042969 592.10986328 C577.1227375 592.1101248 576.05504531 592.11038632 574.95499882 592.11065576 C540.36749536 592.1191737 505.77999845 592.13419277 471.19249896 592.15259444 C435.64008371 592.17147506 400.08767209 592.18377447 364.53525192 592.18782998 C359.51012186 592.18840626 354.4849918 592.18905754 349.45986176 592.18975449 C348.47087447 592.18988933 347.48188719 592.19002418 346.46293059 592.19016311 C330.56300933 592.19252367 314.66309929 592.20179203 298.76318259 592.21366407 C282.76627177 592.22546037 266.76937205 592.2299305 250.77245703 592.22700275 C241.27629389 592.22548523 231.78017144 592.22950456 222.28401568 592.24159509 C215.92861499 592.24913159 209.57324074 592.24930166 203.21783818 592.24366363 C199.60430321 592.24066348 195.99084483 592.24069305 192.37731829 592.24976636 C173.23359642 592.29501789 154.19735109 592.08678462 135.4375 587.8125 C134.00845337 587.49212769 134.00845337 587.49212769 132.55053711 587.1652832 C117.13104469 583.54494295 102.90153995 577.50351893 89 570 C87.97777344 569.45859375 86.95554687 568.9171875 85.90234375 568.359375 C72.24138089 560.78425158 60.21258944 550.79730835 49 540 C48.3709375 539.4225 47.741875 538.845 47.09375 538.25 C28.16096599 520.38888301 13.87807889 494.57828148 6 470 C5.74503903 469.23561745 5.49007806 468.4712349 5.227391 467.68368924 C-1.4678987 446.90724178 -0.82701933 426.04812504 -0.69639373 404.47672904 C-0.67017953 399.03403986 -0.67927236 393.59138577 -0.68380737 388.14865112 C-0.68693456 378.74718316 -0.66830938 369.34596744 -0.63438034 359.94456291 C-0.58535869 346.35220399 -0.56996528 332.75996548 -0.56245239 319.16752774 C-0.54936104 297.1081169 -0.50954173 275.04884012 -0.45263672 252.98950195 C-0.39745753 231.57674746 -0.35496921 210.16403192 -0.32958984 188.7512207 C-0.32880069 188.08965398 -0.32801153 187.42808725 -0.32719846 186.74647305 C-0.31850128 179.44257174 -0.31015054 172.13867005 -0.30194163 164.83476818 C-0.23986729 109.88972633 -0.12932511 54.94493279 0 0 Z " fill="#000000" transform="translate(1908,15)"/>
<path d="M0 0 C155.1 0 310.2 0 470 0 C469.21075382 3.94623089 468.56174519 6.24932919 466.82969666 9.70137024 C466.37395767 10.6169722 465.91821869 11.53257416 465.44866943 12.47592163 C464.94732483 13.46782501 464.44598022 14.45972839 463.92944336 15.48168945 C463.40260452 16.53580521 462.87576569 17.58992096 462.33296204 18.67597961 C460.89111021 21.55795401 459.44397565 24.43719913 457.99443507 27.31531167 C456.47933996 30.3267212 454.97106134 33.3415408 453.46205139 36.35600281 C450.60528116 42.06022693 447.74240796 47.761365 444.87732083 53.46141547 C441.61505961 59.9523812 438.35962979 66.4467643 435.10476482 72.94144118 C428.4107624 86.29810629 421.70820776 99.65046296 415 113 C371.64152228 113.03038001 328.28304402 113.05067734 284.92455721 113.06185675 C282.44533443 113.06249797 279.96611166 113.06315684 277.48688889 113.06381607 C190.82328678 113.08649294 104.16231663 113.03504142 17.5 112.5 C16.52898897 112.49402628 15.55797793 112.48805257 14.55754232 112.48189783 C-8.96175214 112.3369132 -32.48093796 112.1788678 -56 112 C-48.51300243 95.70715706 -40.25228883 79.95442506 -32 64 C-21.44 42.88 -10.88 21.76 0 0 Z " fill="#27A9E0" transform="translate(2376,494)"/>
<path d="M0 0 C61.38 0 122.76 0 186 0 C171.37031113 36.57422216 146.73343716 80.53312569 131 112 C69.29 112 7.58 112 -56 112 C-48.34215866 95.83344607 -40.21840702 79.88892023 -32 64 C-21.44 42.88 -10.88 21.76 0 0 Z " fill="#26A9DF" transform="translate(2376,494)"/>
<path d="M0 0 C32.34 0 64.68 0 98 0 C87.66096353 21.82685476 87.66096353 21.82685476 83.75561523 29.60229492 C83.29856988 30.51650617 82.84152452 31.43071741 82.37062931 32.37263203 C80.9351552 35.24285198 79.49696633 38.11170045 78.05859375 40.98046875 C77.15415412 42.78787208 76.24989815 44.59536733 75.3458252 46.4029541 C72.04525921 52.9989086 68.74118071 59.593105 65.4375 66.1875 C58.033125 80.975625 50.62875 95.76375 43 111 C104.38 111.33 165.76 111.66 229 112 C229 112.33 229 112.66 229 113 C133.96 113 38.92 113 -59 113 C-57.02 112.505 -57.02 112.505 -55 112 C-53.93768618 109.37640413 -53.93768618 109.37640413 -53 106 C-51.58247382 102.83907327 -50.00545149 99.75800329 -48.44604492 96.66503906 C-47.75539696 95.28330505 -47.75539696 95.28330505 -47.05079651 93.87365723 C-45.53113976 90.83573424 -44.00583532 87.8006845 -42.48046875 84.765625 C-41.41878337 82.64598833 -40.35745344 80.52617358 -39.29646301 78.40618896 C-36.50221964 72.82533209 -33.70318555 67.24689145 -30.90313721 61.66894531 C-28.06732968 56.01770925 -25.23598344 50.36423927 -22.40429688 44.7109375 C-17.82124208 35.56237999 -13.23554319 26.41515412 -8.64602661 17.26983643 C-5.75878586 11.51581537 -2.87906708 5.75813415 0 0 Z " fill="#FEFEFE" transform="translate(2562,494)"/>
<path d="M0 0 C8.91 0 17.82 0 27 0 C28.63721292 6.79082971 30.27341828 13.58188753 31.90722656 20.37353516 C32.46135147 22.67575397 33.01602309 24.97784128 33.57128906 27.27978516 C36.83868453 40.82709092 40.04404766 54.3810333 43 68 C43.20568604 67.00597168 43.41137207 66.01194336 43.62329102 64.98779297 C48.12845858 43.24960638 52.86726215 21.60027179 58 0 C67.57 0 77.14 0 87 0 C90.96883228 14.18953871 94.08611907 28.55049447 97.25 42.9375 C97.80959839 45.47076885 98.36949183 48.00397254 98.9296875 50.53710938 C100.28986119 56.69065911 101.64638935 62.84500343 103 69 C103.15259277 68.26259079 103.30518555 67.52518158 103.46240234 66.76542664 C108.1025489 44.37465289 113.50565861 22.19453321 119 0 C127.25 0 135.5 0 144 0 C142.875 9 142.875 9 141.9306488 12.64453125 C141.71892029 13.47170151 141.50719177 14.29887177 141.28904724 15.15110779 C141.05887405 16.02936722 140.82870087 16.90762665 140.59155273 17.8125 C140.34756744 18.75976456 140.10358215 19.70702911 139.85220337 20.68299866 C139.05071852 23.78990713 138.24221122 26.89494101 137.43359375 30 C136.87408144 32.16321752 136.31501091 34.32654935 135.75636292 36.48999023 C134.28940989 42.16608565 132.81648144 47.84061369 131.34228516 53.51483154 C129.83719437 59.31233483 128.33778496 65.11130683 126.83789062 70.91015625 C123.89747172 82.27488043 120.95021157 93.637814 118 105 C108.43 105 98.86 105 89 105 C87.53952766 101.34881915 86.47961378 98.22294346 85.59545898 94.45043945 C85.33856796 93.36193192 85.08167694 92.27342438 84.81700134 91.15193176 C84.54610184 89.98417709 84.27520233 88.81642242 83.99609375 87.61328125 C83.71274673 86.40109421 83.42939972 85.18890717 83.13746643 83.93998718 C82.38677135 80.72072859 81.64021048 77.50054139 80.89465332 74.28009033 C80.43950909 72.32114715 79.98039465 70.36318009 79.51977539 68.40551758 C78.63038616 64.62208782 77.74960373 60.83675025 76.87109375 57.05078125 C76.59817001 55.89314774 76.32524628 54.73551422 76.04405212 53.5428009 C74.54837127 47.03361657 73.45434153 40.66659834 73 34 C72.34 34 71.68 34 71 34 C70.94610107 34.94841263 70.94610107 34.94841263 70.89111328 35.91598511 C70.32135219 43.80889895 68.73430062 51.2653275 66.875 58.9453125 C66.56437725 60.24985563 66.25432927 61.55453573 65.94482422 62.85934448 C65.30060968 65.56818958 64.65137532 68.27576075 63.99804688 70.98242188 C63.15966771 74.4563965 62.3313984 77.9326852 61.50643921 81.40986824 C60.71672215 84.73516666 59.92081169 88.05896711 59.125 91.3828125 C58.82706543 92.63369659 58.52913086 93.88458069 58.22216797 95.17337036 C57.94518066 96.31901459 57.66819336 97.46465881 57.3828125 98.64501953 C57.13934082 99.65774933 56.89586914 100.67047913 56.64501953 101.71389771 C56 104 56 104 55 105 C52.85441173 105.08775605 50.70595579 105.10695219 48.55859375 105.09765625 C47.25341797 105.09443359 45.94824219 105.09121094 44.60351562 105.08789062 C43.2148431 105.07953401 41.82617123 105.07106905 40.4375 105.0625 C39.04492344 105.05748666 37.65234519 105.05292347 36.25976562 105.04882812 C32.8398013 105.03699434 29.41992156 105.0205088 26 105 C23.20245824 94.36031414 20.41358339 83.71838363 17.6330719 73.07423401 C16.09372866 67.18174431 14.55196987 61.28989995 13.00683594 55.39892578 C11.44882063 49.45844315 9.89582055 43.51666931 8.34766865 37.5736084 C7.49637243 34.3062383 6.64293048 31.03946246 5.78439331 27.77398682 C4.8154036 24.08385839 3.85410247 20.3918058 2.89453125 16.69921875 C2.60129974 15.58950211 2.30806824 14.47978546 2.00595093 13.33644104 C1.60818954 11.79644691 1.60818954 11.79644691 1.20239258 10.2253418 C0.96909744 9.33276169 0.73580231 8.44018158 0.49543762 7.52055359 C0 5 0 5 0 0 Z " fill="#000000" transform="translate(497,705)"/>
<path d="M0 0 C12.54 0 25.08 0 38 0 C39.12019531 4.15464844 40.24039063 8.30929687 41.39453125 12.58984375 C42.29502518 15.92369972 43.19605132 19.25741084 44.097435 22.59102631 C45.04558036 26.09815671 45.99280875 29.60552862 46.93774414 33.11352539 C47.8496538 36.49877101 48.76418359 39.88329919 49.68045616 43.26736641 C50.19563944 45.17271244 50.70817847 47.07877282 51.22065735 48.98484802 C52.96011211 55.39993398 54.82026849 61.72036756 57 68 C57.1544458 67.32573975 57.3088916 66.65147949 57.46801758 65.95678711 C62.5973608 43.74567583 68.72637526 21.91896051 75 0 C87.21 0 99.42 0 112 0 C112 34.65 112 69.3 112 105 C103.75 105 95.5 105 87 105 C87 80.25 87 55.5 87 30 C84.03 41.22 81.06 52.44 78 64 C74.41063644 77.01144289 74.41063644 77.01144289 72.67626953 83.11767578 C71.96657318 85.61775412 71.26242951 88.11935973 70.55859375 90.62109375 C70.10186959 92.23706599 69.64485218 93.85295539 69.1875 95.46875 C68.9802832 96.20484497 68.77306641 96.94093994 68.55957031 97.69934082 C67.11557366 102.76885268 67.11557366 102.76885268 66 105 C58.74 105 51.48 105 44 105 C41.83354539 97.25432172 39.66850781 89.50825145 37.50586224 81.76150894 C36.50126761 78.16319361 35.49608823 74.5650439 34.48950195 70.96728516 C33.51547146 67.4858005 32.5430691 64.00386465 31.57172585 60.52162933 C31.20356276 59.20283042 30.834844 57.88418649 30.46552086 56.56571198 C29.94251675 54.69820943 29.4217959 52.83006792 28.90112305 50.96191406 C28.60578171 49.90490295 28.31044037 48.84789185 28.00614929 47.7588501 C26.60468279 42.52314349 25.31455052 37.25820207 24 32 C24 56.09 24 80.18 24 105 C16.08 105 8.16 105 0 105 C0 70.35 0 35.7 0 0 Z " fill="#000000" transform="translate(2736,705)"/>
<path d="M0 0 C14.72625 -0.061875 14.72625 -0.061875 29.75 -0.125 C34.36307129 -0.15231201 34.36307129 -0.15231201 39.06933594 -0.18017578 C41.54101386 -0.18602385 44.01269372 -0.19111866 46.484375 -0.1953125 C47.74008301 -0.20554443 48.99579102 -0.21577637 50.28955078 -0.22631836 C63.26252977 -0.22885313 76.23815775 0.50199133 86 10 C93.30553737 19.70532145 94.1248624 30.25079785 93 42 C90.91671324 51.73032141 84.56129946 58.00767599 77 64 C79.01733288 68.06424543 81.03862679 72.12650824 83.0625 76.1875 C83.50727188 77.08045776 83.50727188 77.08045776 83.96102905 77.99145508 C87.80613625 85.70442855 91.70789241 93.35837484 95.92578125 100.875 C97 103 97 103 97 105 C87.43 105 77.86 105 68 105 C65.57529649 100.05380859 63.15300541 95.10658521 60.73681641 90.15625 C59.91368425 88.47164001 59.08914425 86.78771718 58.26318359 85.10449219 C57.07801773 82.68863188 55.89789316 80.27036693 54.71875 77.8515625 C54.34689575 77.0963028 53.9750415 76.34104309 53.59191895 75.56289673 C51 70.22774341 51 70.22774341 51 68 C42.75 68 34.5 68 26 68 C26 80.21 26 92.42 26 105 C17.42 105 8.84 105 0 105 C0 70.35 0 35.7 0 0 Z M26 21 C26 29.91 26 38.82 26 48 C30.30562412 48.06911525 34.60930087 48.12876967 38.91503906 48.16479492 C40.37767075 48.17982196 41.84025782 48.20024955 43.30273438 48.22631836 C45.4128728 48.26297267 47.52241226 48.27978676 49.6328125 48.29296875 C51.53377686 48.31653442 51.53377686 48.31653442 53.47314453 48.34057617 C58.18571706 47.88549943 61.60965156 46.53417759 64.8125 43 C67.28232649 38.84029222 67.49133331 34.71679977 67 30 C65.75638667 26.53097335 64.7850156 24.60753068 61.8684082 22.3503418 C58.28178257 20.66188947 55.17031598 20.62077572 51.29296875 20.70703125 C50.56757401 20.71127609 49.84217926 20.71552094 49.09480286 20.71989441 C46.79198109 20.73660457 44.49005447 20.7742404 42.1875 20.8125 C40.6204554 20.82755684 39.053397 20.8412435 37.48632812 20.85351562 C33.65693497 20.88392372 29.82946205 20.94265365 26 21 Z " fill="#000000" transform="translate(2522,705)"/>
<path d="M0 0 C14.72625 -0.061875 14.72625 -0.061875 29.75 -0.125 C34.36307129 -0.15231201 34.36307129 -0.15231201 39.06933594 -0.18017578 C41.54101386 -0.18602385 44.01269372 -0.19111866 46.484375 -0.1953125 C47.74008301 -0.20554443 48.99579102 -0.21577637 50.28955078 -0.22631836 C63.26252977 -0.22885313 76.23815775 0.50199133 86 10 C93.30553737 19.70532145 94.1248624 30.25079785 93 42 C90.91671324 51.73032141 84.56129946 58.00767599 77 64 C79.01733288 68.06424543 81.03862679 72.12650824 83.0625 76.1875 C83.50727188 77.08045776 83.50727188 77.08045776 83.96102905 77.99145508 C87.80613625 85.70442855 91.70789241 93.35837484 95.92578125 100.875 C97 103 97 103 97 105 C87.43 105 77.86 105 68 105 C65.57529649 100.05380859 63.15300541 95.10658521 60.73681641 90.15625 C59.91368425 88.47164001 59.08914425 86.78771718 58.26318359 85.10449219 C57.07801773 82.68863188 55.89789316 80.27036693 54.71875 77.8515625 C54.34689575 77.0963028 53.9750415 76.34104309 53.59191895 75.56289673 C51 70.22774341 51 70.22774341 51 68 C42.75 68 34.5 68 26 68 C26 80.21 26 92.42 26 105 C17.42 105 8.84 105 0 105 C0 70.35 0 35.7 0 0 Z M26 21 C26 29.91 26 38.82 26 48 C30.30562412 48.06911525 34.60930087 48.12876967 38.91503906 48.16479492 C40.37767075 48.17982196 41.84025782 48.20024955 43.30273438 48.22631836 C45.4128728 48.26297267 47.52241226 48.27978676 49.6328125 48.29296875 C51.53377686 48.31653442 51.53377686 48.31653442 53.47314453 48.34057617 C58.18571706 47.88549943 61.60965156 46.53417759 64.8125 43 C67.28232649 38.84029222 67.49133331 34.71679977 67 30 C65.75638667 26.53097335 64.7850156 24.60753068 61.8684082 22.3503418 C58.28178257 20.66188947 55.17031598 20.62077572 51.29296875 20.70703125 C50.56757401 20.71127609 49.84217926 20.71552094 49.09480286 20.71989441 C46.79198109 20.73660457 44.49005447 20.7742404 42.1875 20.8125 C40.6204554 20.82755684 39.053397 20.8412435 37.48632812 20.85351562 C33.65693497 20.88392372 29.82946205 20.94265365 26 21 Z " fill="#000000" transform="translate(960,705)"/>
<path d="M0 0 C1.05123047 -0.01611328 2.10246094 -0.03222656 3.18554688 -0.04882812 C16.78084444 -0.05718418 27.09852113 3.84678617 38.4375 11.0625 C49.23865591 21.86365591 53.80352919 35.81816283 54.06787109 50.84643555 C54.03332737 67.5106438 51.63356903 81.7911126 40.0625 94.5625 C27.16087902 106.70375928 10.38434105 108.05877251 -6.43359375 107.66015625 C-20.03309497 107.05278298 -33.19746815 102.74218571 -42.65234375 92.52734375 C-53.96377754 77.43656032 -55.95238631 58.96690066 -53.5625 40.6875 C-51.25146398 27.45881106 -45.98498314 17.54535414 -35.609375 8.87890625 C-24.84845137 1.54024915 -12.67571446 -0.03843455 0 0 Z M-18.3125 26.3125 C-24.73310969 32.38519488 -27.3318717 39.03505383 -27.74609375 47.8359375 C-27.76999742 49.78631229 -27.77073025 51.7370889 -27.75 53.6875 C-27.74025146 54.70465088 -27.73050293 55.72180176 -27.72045898 56.76977539 C-27.52139176 65.16906245 -26.99615396 72.17526179 -21.21875 78.6640625 C-13.87246026 85.59406249 -7.27671031 87.17251748 2.6875 87.3125 C9.63079801 86.81733612 15.69161205 84.19591018 20.6875 79.3125 C24.55113649 73.472496 27.43946261 67.38156564 27.6875 60.3125 C27.72488281 59.33539062 27.76226563 58.35828125 27.80078125 57.3515625 C28.05335621 45.945809 26.97626031 36.49275068 19.6875 27.3125 C10.17077021 18.05590861 -8.37249848 17.75947544 -18.3125 26.3125 Z " fill="#000000" transform="translate(2349.3125,703.6875)"/>
<path d="M0 0 C1.05123047 -0.01611328 2.10246094 -0.03222656 3.18554688 -0.04882812 C16.78084444 -0.05718418 27.09852113 3.84678617 38.4375 11.0625 C49.23865591 21.86365591 53.80352919 35.81816283 54.06787109 50.84643555 C54.03332737 67.5106438 51.63356903 81.7911126 40.0625 94.5625 C27.16087902 106.70375928 10.38434105 108.05877251 -6.43359375 107.66015625 C-20.03309497 107.05278298 -33.19746815 102.74218571 -42.65234375 92.52734375 C-53.96377754 77.43656032 -55.95238631 58.96690066 -53.5625 40.6875 C-51.25146398 27.45881106 -45.98498314 17.54535414 -35.609375 8.87890625 C-24.84845137 1.54024915 -12.67571446 -0.03843455 0 0 Z M-18.3125 26.3125 C-24.73310969 32.38519488 -27.3318717 39.03505383 -27.74609375 47.8359375 C-27.76999742 49.78631229 -27.77073025 51.7370889 -27.75 53.6875 C-27.74025146 54.70465088 -27.73050293 55.72180176 -27.72045898 56.76977539 C-27.52139176 65.16906245 -26.99615396 72.17526179 -21.21875 78.6640625 C-13.87246026 85.59406249 -7.27671031 87.17251748 2.6875 87.3125 C9.63079801 86.81733612 15.69161205 84.19591018 20.6875 79.3125 C24.55113649 73.472496 27.43946261 67.38156564 27.6875 60.3125 C27.72488281 59.33539062 27.76226562 58.35828125 27.80078125 57.3515625 C28.05335621 45.945809 26.97626031 36.49275068 19.6875 27.3125 C10.17077021 18.05590861 -8.37249848 17.75947544 -18.3125 26.3125 Z " fill="#000000" transform="translate(336.3125,703.6875)"/>
<path d="M0 0 C28.05 0 56.1 0 85 0 C85 6.93 85 13.86 85 21 C65.53 21 46.06 21 26 21 C26 27.6 26 34.2 26 41 C43.16 41 60.32 41 78 41 C78 47.93 78 54.86 78 62 C60.84 62 43.68 62 26 62 C26 69.26 26 76.52 26 84 C45.8 84 65.6 84 86 84 C86 90.93 86 97.86 86 105 C57.62 105 29.24 105 0 105 C0 70.35 0 35.7 0 0 Z " fill="#000000" transform="translate(754,705)"/>
<path d="M0 0 C1.29349365 0.00523682 2.5869873 0.01047363 3.91967773 0.01586914 C4.9496714 0.01799156 4.9496714 0.01799156 6.00047302 0.02015686 C8.20144949 0.0257706 10.40232557 0.03832532 12.60327148 0.05102539 C14.09220231 0.05603863 15.58113473 0.06060184 17.07006836 0.06469727 C20.72700223 0.07574446 24.38387707 0.09301826 28.04077148 0.11352539 C32.35428374 11.47819065 36.66757633 22.84293885 40.97680664 34.20922852 C41.35099669 35.19620822 41.35099669 35.19620822 41.73274612 36.20312691 C42.74892006 38.8834783 43.76507418 41.56383719 44.78114319 44.24422836 C47.86347714 52.375322 50.94893553 60.50521118 54.03962708 68.63313293 C55.62952931 72.81577068 57.21684402 76.99938691 58.80349731 81.18325806 C59.5444103 83.13518068 60.28649443 85.08665916 61.02975464 87.03768921 C62.05466806 89.72850283 63.07556044 92.4208078 64.09545898 95.11352539 C64.39749741 95.9034639 64.69953583 96.6934024 65.01072693 97.50727844 C67.04077148 102.88542646 67.04077148 102.88542646 67.04077148 105.11352539 C57.80077148 105.11352539 48.56077148 105.11352539 39.04077148 105.11352539 C38.05077148 102.37040039 37.06077148 99.62727539 36.04077148 96.80102539 C35.7275293 95.94081787 35.41428711 95.08061035 35.09155273 94.19433594 C34.84791992 93.51153564 34.60428711 92.82873535 34.35327148 92.12524414 C34.1019043 91.42874756 33.85053711 90.73225098 33.59155273 90.01464844 C33.04077148 88.11352539 33.04077148 88.11352539 33.04077148 85.11352539 C19.18077148 85.44352539 5.32077148 85.77352539 -8.95922852 86.11352539 C-11.26922852 92.38352539 -13.57922852 98.65352539 -15.95922852 105.11352539 C-24.53922852 105.11352539 -33.11922852 105.11352539 -41.95922852 105.11352539 C-40.83430439 97.23905652 -40.83430439 97.23905652 -39.49487305 93.79785156 C-39.19522141 93.01700699 -38.89556976 92.23616241 -38.58683777 91.43165588 C-38.25855484 90.59835251 -37.93027191 89.76504913 -37.59204102 88.90649414 C-37.24510696 88.00781113 -36.89817291 87.10912811 -36.54072571 86.18321228 C-35.39523179 83.21985045 -34.23970803 80.26050622 -33.08422852 77.30102539 C-31.87017753 74.16841767 -30.65868992 71.03482609 -29.4473114 67.90118408 C-28.60141151 65.71347691 -27.75464555 63.52610444 -26.90705872 61.33905029 C-23.7603628 53.21326695 -20.65594374 45.07210227 -17.57250977 36.92211914 C-17.1367865 35.77098129 -16.70106323 34.61984344 -16.25213623 33.43382263 C-14.54265006 28.91588631 -12.8340074 24.39763758 -11.12896729 19.87802124 C-9.94844269 16.74989597 -8.7646851 13.62301152 -7.58032227 10.49633789 C-7.22698318 9.55692856 -6.8736441 8.61751923 -6.50959778 7.64964294 C-6.18674301 6.7987056 -5.86388824 5.94776825 -5.53125 5.07104492 C-5.25022934 4.32678253 -4.96920868 3.58252014 -4.67967224 2.81570435 C-3.46974929 -0.04295804 -3.32100933 0.12740445 0 0 Z M11.04077148 24.11352539 C9.3462233 29.14763288 7.6556661 34.18305643 5.96875 39.21972656 C5.39464326 40.93200599 4.81945868 42.64392444 4.24316406 44.35546875 C3.41372775 46.81944566 2.58821033 49.28470615 1.76342773 51.75024414 C1.50610367 52.51189377 1.2487796 53.2735434 0.98365784 54.05827332 C0.74348434 54.77864273 0.50331085 55.49901215 0.25585938 56.24121094 C0.04490128 56.86964401 -0.16605682 57.49807709 -0.38340759 58.14555359 C-1.05213257 60.43104174 -1.49221471 62.77845638 -1.95922852 65.11352539 C6.95077148 65.11352539 15.86077148 65.11352539 25.04077148 65.11352539 C23.73940278 59.25736622 22.41280734 53.83525576 20.43920898 48.23461914 C20.19788239 47.53708023 19.95655579 46.83954132 19.70791626 46.12086487 C18.94851422 43.92927126 18.18228768 41.74013957 17.41577148 39.55102539 C16.89448127 38.050533 16.37364411 36.54988313 15.85327148 35.04907227 C14.58765626 31.40205268 13.31592187 27.75722146 12.04077148 24.11352539 C11.71077148 24.11352539 11.38077148 24.11352539 11.04077148 24.11352539 Z " fill="#000000" transform="translate(1734.959228515625,704.886474609375)"/>
<path d="M0 0 C9.343125 -0.04125 18.68625 -0.0825 28.3125 -0.125 C31.24036377 -0.14320801 34.16822754 -0.16141602 37.18481445 -0.18017578 C39.53596819 -0.18602344 41.88712398 -0.19111835 44.23828125 -0.1953125 C45.43432983 -0.20554443 46.63037842 -0.21577637 47.8626709 -0.22631836 C59.45578094 -0.22870059 70.58936339 0.48387083 79.6875 8.3125 C88.67479343 18.75719236 89.84196286 28.26437503 89.1953125 41.7578125 C88.49541299 49.79265884 85.03609184 56.68546396 79 62 C71.46117696 67.7577569 64.30890857 69.31612072 55.00390625 69.1953125 C53.75358864 69.19106766 53.75358864 69.19106766 52.47801208 69.18673706 C49.8393564 69.17562289 47.20105152 69.15053515 44.5625 69.125 C42.76367681 69.11495885 40.96484825 69.10583499 39.16601562 69.09765625 C34.77710283 69.07742152 30.3889399 69.0382571 26 69 C26 80.88 26 92.76 26 105 C17.42 105 8.84 105 0 105 C0 70.35 0 35.7 0 0 Z M26 21 C26 30.24 26 39.48 26 49 C30.145625 49.061875 34.29125 49.12375 38.5625 49.1875 C40.50298218 49.22846802 40.50298218 49.22846802 42.48266602 49.27026367 C49.65637315 49.32203327 55.09918708 49.12065033 60.875 44.5 C64.1423298 40.14356026 63.40796235 34.1524134 63 29 C61.63718708 25.36583221 60.62182614 24.37033826 57.30224609 22.39331055 C53.66711338 20.85954577 51.2145214 20.65301117 47.2890625 20.70703125 C46.16709473 20.71452393 45.04512695 20.7220166 43.88916016 20.72973633 C42.4819873 20.75704834 41.07481445 20.78436035 39.625 20.8125 C35.12875 20.874375 30.6325 20.93625 26 21 Z " fill="#000000" transform="translate(1304,705)"/>
<path d="M0 0 C9.343125 -0.04125 18.68625 -0.0825 28.3125 -0.125 C31.24036377 -0.14320801 34.16822754 -0.16141602 37.18481445 -0.18017578 C39.53596819 -0.18602344 41.88712398 -0.19111835 44.23828125 -0.1953125 C45.43432983 -0.20554443 46.63037842 -0.21577637 47.8626709 -0.22631836 C59.45578094 -0.22870059 70.58936339 0.48387083 79.6875 8.3125 C88.67479343 18.75719236 89.84196286 28.26437503 89.1953125 41.7578125 C88.49541299 49.79265884 85.03609184 56.68546396 79 62 C71.46117696 67.7577569 64.30890857 69.31612072 55.00390625 69.1953125 C53.75358864 69.19106766 53.75358864 69.19106766 52.47801208 69.18673706 C49.8393564 69.17562289 47.20105152 69.15053515 44.5625 69.125 C42.76367681 69.11495885 40.96484825 69.10583499 39.16601562 69.09765625 C34.77710283 69.07742152 30.3889399 69.0382571 26 69 C26 80.88 26 92.76 26 105 C17.42 105 8.84 105 0 105 C0 70.35 0 35.7 0 0 Z M26 21 C26 30.24 26 39.48 26 49 C30.145625 49.061875 34.29125 49.12375 38.5625 49.1875 C40.50298218 49.22846802 40.50298218 49.22846802 42.48266602 49.27026367 C49.65637315 49.32203327 55.09918708 49.12065033 60.875 44.5 C64.1423298 40.14356026 63.40796235 34.1524134 63 29 C61.63718708 25.36583221 60.62182614 24.37033826 57.30224609 22.39331055 C53.66711338 20.85954577 51.2145214 20.65301117 47.2890625 20.70703125 C46.16709473 20.71452393 45.04512695 20.7220166 43.88916016 20.72973633 C42.4819873 20.75704834 41.07481445 20.78436035 39.625 20.8125 C35.12875 20.874375 30.6325 20.93625 26 21 Z " fill="#000000" transform="translate(81,705)"/>
<path d="M0 0 C25.74 0 51.48 0 78 0 C78 6.93 78 13.86 78 21 C60.84 21 43.68 21 26 21 C26 28.59 26 36.18 26 44 C41.18 44 56.36 44 72 44 C72 50.6 72 57.2 72 64 C56.82 64 41.64 64 26 64 C26 77.53 26 91.06 26 105 C17.42 105 8.84 105 0 105 C0 70.35 0 35.7 0 0 Z " fill="#000000" transform="translate(2103,705)"/>
<path d="M0 0 C30.36 0 60.72 0 92 0 C92 7.26 92 14.52 92 22 C81.11 22 70.22 22 59 22 C59 49.39 59 76.78 59 105 C50.42 105 41.84 105 33 105 C33 77.61 33 50.22 33 22 C22.11 22 11.22 22 0 22 C0 14.74 0 7.48 0 0 Z " fill="#000000" transform="translate(1895,705)"/>
<path d="M0 0 C8.58 0 17.16 0 26 0 C26 27.39 26 54.78 26 83 C43.16 83 60.32 83 78 83 C78 90.26 78 97.52 78 105 C52.26 105 26.52 105 0 105 C0 70.35 0 35.7 0 0 Z " fill="#000000" transform="translate(1509,705)"/>
</svg>
