<?xml version="1.0" encoding="UTF-8"?>
<svg version="1.1" xmlns="http://www.w3.org/2000/svg" width="2912" height="607">
<path d="M0 0 C0.96923588 -0.00352842 1.93847175 -0.00705684 2.93707842 -0.01069218 C4.55661056 -0.00889551 4.55661056 -0.00889551 6.20886052 -0.00706255 C7.91912882 -0.01104029 7.91912882 -0.01104029 9.663948 -0.01509839 C12.85715161 -0.02148228 16.05032224 -0.02332765 19.24353111 -0.02332116 C22.70703322 -0.02438662 26.17052473 -0.03117229 29.63402104 -0.03722787 C36.51668825 -0.04832705 43.39935036 -0.05395798 50.28202495 -0.05793675 C58.5214789 -0.06293711 66.7609229 -0.07366359 75.00037099 -0.08441848 C94.92453873 -0.11008138 114.84871035 -0.12509271 134.77288988 -0.13792895 C141.37364923 -0.14218206 147.9744083 -0.14674776 154.5751673 -0.15151227 C189.66633461 -0.17677838 224.75750239 -0.19882814 259.8486768 -0.21124041 C267.98408395 -0.2141618 276.11949108 -0.21712929 284.25489819 -0.22014582 C285.77100225 -0.22070219 285.77100225 -0.22070219 287.31773467 -0.22126979 C320.06249898 -0.23341584 352.80720942 -0.26434125 385.55194845 -0.30606735 C419.21266299 -0.34888235 452.8733491 -0.3754852 486.53409161 -0.38071512 C491.29178731 -0.38145555 496.04948296 -0.38236623 500.80717862 -0.3833729 C501.7435271 -0.38356352 502.67987559 -0.38375413 503.64459828 -0.38395052 C518.69760959 -0.38746048 533.75055339 -0.40774237 548.80353993 -0.43416954 C563.94785069 -0.4603551 579.09208367 -0.4680244 594.23641382 -0.45706825 C603.22631087 -0.45110501 612.21594356 -0.45893124 621.20580044 -0.48689909 C627.2224197 -0.5042262 633.23885989 -0.50313898 639.25548323 -0.4875314 C642.67656434 -0.47916753 646.09673751 -0.48117681 649.51783536 -0.50014286 C664.63041876 -0.57876771 678.19697158 0.18914531 692.55030835 5.12995183 C693.27366843 5.37359923 693.99702852 5.61724662 694.7423086 5.86827727 C705.12710292 9.39014141 714.91284762 13.90996185 724.55030835 19.12995183 C725.17792065 19.46865301 725.80553296 19.80735418 726.45216382 20.15631902 C737.10676377 25.99817986 746.35130953 33.22662237 755.55030835 41.12995183 C757.02757397 42.39258855 757.02757397 42.39258855 758.53468335 43.68073308 C763.65213132 48.17013063 768.25687052 52.85113483 772.55030835 58.12995183 C772.95894116 58.6262409 773.36757397 59.12252996 773.7885896 59.63385808 C780.4360388 67.73723276 786.34578465 76.00597201 791.55030835 85.12995183 C791.88127514 85.70294012 792.21224194 86.2759284 792.55323803 86.86627996 C802.54020525 104.27896347 808.38113462 122.53590527 812.55030835 142.12995183 C812.69871167 142.82701238 812.84711499 143.52407293 813.00001538 144.24225652 C821.5916172 187.5549123 809.70923481 235.65767837 785.97218335 272.21979558 C767.2866657 299.63469637 741.71096342 321.39640277 711.55030835 335.12995183 C710.53347973 335.59594793 710.53347973 335.59594793 709.49610913 336.07135808 C701.57104887 339.65102149 693.57400377 342.61274965 685.17530835 344.87995183 C684.49428051 345.06646307 683.81325268 345.2529743 683.11158764 345.44513738 C666.61321711 349.62647541 650.40386732 350.5679603 633.46609509 350.515221 C631.18960655 350.5192364 628.91312002 350.52456753 626.63663727 350.53108674 C620.43182484 350.54513989 614.2271445 350.54083839 608.02232575 350.53337359 C602.0022207 350.52910096 595.98214895 350.53898085 589.96205402 350.54852426 C577.65818475 350.56758696 565.35434519 350.57317494 553.05046284 350.5712074 C540.87189455 350.56936308 528.69335966 350.57461744 516.51479924 350.58888853 C515.37563447 350.59022334 515.37563447 350.59022334 514.21345627 350.59158513 C510.35583099 350.59615551 506.4982059 350.60087256 502.64058089 350.60565995 C494.79868483 350.61535562 486.95678772 350.62408843 479.11489022 350.63252199 C477.93768707 350.63378837 477.93768707 350.63378837 476.73670205 350.63508033 C458.08806749 350.65489726 439.43942941 350.66491401 420.79078686 350.67365301 C419.97556733 350.67403767 419.1603478 350.67442234 418.32042464 350.67481866 C411.71512715 350.67793475 405.10982965 350.68102589 398.50453213 350.68407637 C379.46876417 350.69288281 360.43299804 350.70410374 341.39723217 350.71662176 C340.58139718 350.71715511 339.76556219 350.71768846 338.92500492 350.71823797 C320.29272487 350.73045785 301.66044856 350.74475566 283.02817452 350.76417482 C282.24482252 350.76498968 281.46147053 350.76580453 280.65438059 350.76664408 C272.83348163 350.77481135 265.01258302 350.7832486 257.19168484 350.79213398 C240.40661599 350.81110682 223.62157096 350.82410999 206.83649082 350.82512873 C194.60704744 350.82592229 182.37762415 350.83332206 170.14818896 350.84765846 C163.52596567 350.85519378 156.90377314 350.85917126 150.28154385 350.85454023 C144.21780825 350.85034028 138.15415102 350.85529056 132.0904268 350.86744808 C129.89900729 350.87021176 127.70758036 350.86960936 125.51616342 350.86526699 C104.3950693 350.82679979 86.55225099 352.48675033 70.17530835 367.27448308 C55.56040951 382.16094254 54.25393369 400.14979368 54.23146069 419.91193426 C54.2221488 421.79531056 54.21197827 423.67868278 54.20101941 425.56205022 C54.17384752 430.64593882 54.15860819 435.72979991 54.14559138 440.8137418 C54.12990449 446.13754557 54.10313212 451.46129362 54.07756054 456.78505743 C54.03087085 466.85342954 53.99407939 476.92181226 53.96088767 486.99023694 C53.91542954 500.60484047 53.85459272 514.21937486 53.79463971 527.83392084 C53.70066541 549.26589641 53.62716201 570.69789219 53.55030835 592.12995183 C16.59030835 592.12995183 -20.36969165 592.12995183 -58.44969165 592.12995183 C-58.57060076 542.82142853 -58.57060076 542.82142853 -58.59617603 522.06159246 C-58.61393448 507.76216161 -58.6347414 493.46278402 -58.67601001 479.1633991 C-58.70605938 468.74639938 -58.72530128 458.32944313 -58.73195714 447.91240126 C-58.73584325 442.4047019 -58.74487478 436.89712683 -58.76688182 431.3894676 C-58.7874934 426.18810015 -58.79347652 420.98690625 -58.7890147 415.78550184 C-58.78982902 413.89310798 -58.79564582 412.0007073 -58.80730808 410.1083492 C-58.96595126 382.9988553 -53.99942469 357.69928883 -42.44969165 333.12995183 C-42.1042229 332.39502508 -41.75875415 331.66009832 -41.40281665 330.90290105 C-34.08027519 315.63280642 -24.16946894 302.32926174 -12.44969165 290.12995183 C-11.98514575 289.6343073 -11.52059986 289.13866277 -11.04197681 288.62799871 C17.18704565 258.58275399 57.43552498 240.4687074 98.55030835 238.12995183 C105.89444918 237.93747395 113.24381289 237.98789179 120.58982861 237.99192083 C122.85044831 237.98950069 125.11106758 237.98663778 127.37168622 237.9833715 C133.56980008 237.97563975 139.76790285 237.97400023 145.96602094 237.97332036 C151.96845058 237.9716663 157.97087397 237.96532864 163.97330004 237.95899891 C175.49797897 237.94694102 187.0226573 237.93826964 198.54734071 237.93196076 C216.84302816 237.92191183 235.13869708 237.90265034 253.43437337 237.88041837 C260.47959534 237.87188932 267.52481763 237.86362253 274.57003987 237.85531461 C275.74402884 237.8539271 275.74402884 237.8539271 276.94173476 237.85251156 C295.56011808 237.83053463 314.17850346 237.81073667 332.79689038 237.79206121 C334.01843365 237.79083169 334.01843365 237.79083169 335.26465456 237.78957733 C354.26538821 237.77049176 373.26612175 237.75352881 392.26686108 237.74121892 C393.08417335 237.74068926 393.90148562 237.74015959 394.74356493 237.73961387 C401.33187234 237.73536207 407.92017978 237.73118587 414.50848725 237.72702907 C441.6832768 237.70982466 468.8580409 237.68260675 496.03280859 237.6438687 C499.87170163 237.63840718 503.71059484 237.63307417 507.54948819 237.62782705 C508.68270588 237.62627548 508.68270588 237.62627548 509.83881685 237.62469256 C521.98577705 237.60838336 534.1327194 237.60283984 546.27968951 237.60152939 C558.48997666 237.60002363 570.7002154 237.58784821 582.9104812 237.56477298 C589.52265546 237.55258618 596.13476184 237.54559188 602.74695218 237.55148542 C608.80308098 237.55678673 614.85902962 237.5482842 620.91512837 237.52892904 C623.10276407 237.5243603 625.29041743 237.52481463 627.4780495 237.53087743 C648.11727459 237.58295982 665.97767735 235.18009442 681.49049389 220.31501043 C694.40795058 207.43043375 701.28489624 192.12136485 701.98780835 173.75495183 C701.4890783 156.65266737 694.81570414 139.96460444 682.6245271 127.88776433 C668.19921689 114.50249427 651.04725041 109.97345078 631.72557938 109.99128664 C630.53226414 109.98844442 629.33894891 109.9856022 628.1094726 109.98267385 C624.79533997 109.97578303 621.48125777 109.97333274 618.16712159 109.97274643 C614.56238788 109.97101522 610.95766539 109.96352863 607.35293823 109.95676988 C601.03473696 109.94571707 594.71653967 109.93834274 588.39833081 109.93337095 C579.00337778 109.92596143 569.60843866 109.91287746 560.21349383 109.89862519 C544.40988645 109.8748119 528.6062766 109.85560887 512.80266011 109.83902586 C497.15323624 109.8225896 481.50381699 109.80410884 465.85439885 109.78289258 C464.88166458 109.78157498 463.90893032 109.78025737 462.90671927 109.77889984 C457.96677041 109.77219783 453.0268216 109.76545924 448.08687281 109.75870658 C413.08974447 109.71093304 378.09261183 109.66775102 343.09547436 109.62726629 C309.09449461 109.58792341 275.09351843 109.54650258 241.09254467 109.50226629 C240.04463811 109.50090376 238.99673154 109.49954123 237.91707023 109.49813741 C227.39364077 109.48445213 216.87021137 109.47072459 206.34678201 109.45696607 C184.90900412 109.4289389 163.47122586 109.40119388 142.03344738 109.37361944 C141.04775519 109.37235124 140.062063 109.37108304 139.04650134 109.36977641 C73.21444281 109.28510873 7.38237616 109.20701821 -58.44969165 109.12995183 C-57.24874542 105.46362288 -56.00666887 101.99414561 -54.27975452 98.54283941 C-53.84932849 97.67779287 -53.41890247 96.81274633 -52.97543323 95.92148626 C-52.50730716 94.99085363 -52.03918109 94.060221 -51.55686939 93.10138738 C-51.06075153 92.10725332 -50.56463367 91.11311925 -50.05348194 90.08885992 C-48.41731565 86.812831 -46.77541898 83.53971189 -45.1332854 80.26667058 C-43.99481517 77.99092234 -42.85664072 75.71502609 -41.71874988 73.43898809 C-39.33637261 68.67579628 -36.95141373 63.9139107 -34.56419361 59.15314519 C-31.80217837 53.64487779 -29.04438052 48.13451565 -26.28896171 42.62294585 C-23.63724789 37.31890872 -20.98321024 32.01603754 -18.3279742 26.71376264 C-17.19792005 24.45684544 -16.06835658 22.19968249 -14.93928325 19.94227445 C-13.3659094 16.79768323 -11.78991408 13.65442062 -10.21311939 10.51154363 C-9.50789394 9.10041296 -9.50789394 9.10041296 -8.78842151 7.66077459 C-8.14701221 6.38435346 -8.14701221 6.38435346 -7.49264514 5.08214605 C-6.93378698 3.96694349 -6.93378698 3.96694349 -6.36363876 2.82921159 C-4.65962728 -0.33897847 -3.5046743 0.00400889 0 0 Z " fill="#000000" transform="translate(1053.4496916532516,14.87004816532135)"/>
<path d="M0 0 C0.96923588 -0.00352842 1.93847175 -0.00705684 2.93707842 -0.01069218 C4.55661056 -0.00889551 4.55661056 -0.00889551 6.20886052 -0.00706255 C7.91912882 -0.01104029 7.91912882 -0.01104029 9.663948 -0.01509839 C12.85715161 -0.02148228 16.05032224 -0.02332765 19.24353111 -0.02332116 C22.70703322 -0.02438662 26.17052473 -0.03117229 29.63402104 -0.03722787 C36.51668825 -0.04832705 43.39935036 -0.05395798 50.28202495 -0.05793675 C58.5214789 -0.06293711 66.7609229 -0.07366359 75.00037099 -0.08441848 C94.92453873 -0.11008138 114.84871035 -0.12509271 134.77288988 -0.13792895 C141.37364923 -0.14218206 147.9744083 -0.14674776 154.5751673 -0.15151227 C189.66633461 -0.17677838 224.75750239 -0.19882814 259.8486768 -0.21124041 C267.98408395 -0.2141618 276.11949108 -0.21712929 284.25489819 -0.22014582 C285.77100225 -0.22070219 285.77100225 -0.22070219 287.31773467 -0.22126979 C320.06249898 -0.23341584 352.80720942 -0.26434125 385.55194845 -0.30606735 C419.21266299 -0.34888235 452.8733491 -0.3754852 486.53409161 -0.38071512 C491.29178731 -0.38145555 496.04948296 -0.38236623 500.80717862 -0.3833729 C501.7435271 -0.38356352 502.67987559 -0.38375413 503.64459828 -0.38395052 C518.69760959 -0.38746048 533.75055339 -0.40774237 548.80353993 -0.43416954 C563.94785069 -0.4603551 579.09208367 -0.4680244 594.23641382 -0.45706825 C603.22631087 -0.45110501 612.21594356 -0.45893124 621.20580044 -0.48689909 C627.2224197 -0.5042262 633.23885989 -0.50313898 639.25548323 -0.4875314 C642.67656434 -0.47916753 646.09673751 -0.48117681 649.51783536 -0.50014286 C664.63041876 -0.57876771 678.19697158 0.18914531 692.55030835 5.12995183 C693.27366843 5.37359923 693.99702852 5.61724662 694.7423086 5.86827727 C705.12710292 9.39014141 714.91284762 13.90996185 724.55030835 19.12995183 C725.17792065 19.46865301 725.80553296 19.80735418 726.45216382 20.15631902 C737.10676377 25.99817986 746.35130953 33.22662237 755.55030835 41.12995183 C757.02757397 42.39258855 757.02757397 42.39258855 758.53468335 43.68073308 C763.65213132 48.17013063 768.25687052 52.85113483 772.55030835 58.12995183 C772.95894116 58.6262409 773.36757397 59.12252996 773.7885896 59.63385808 C780.4360388 67.73723276 786.34578465 76.00597201 791.55030835 85.12995183 C791.88127514 85.70294012 792.21224194 86.2759284 792.55323803 86.86627996 C802.54020525 104.27896347 808.38113462 122.53590527 812.55030835 142.12995183 C812.69871167 142.82701238 812.84711499 143.52407293 813.00001538 144.24225652 C821.5916172 187.5549123 809.70923481 235.65767837 785.97218335 272.21979558 C767.2866657 299.63469637 741.71096342 321.39640277 711.55030835 335.12995183 C710.53347973 335.59594793 710.53347973 335.59594793 709.49610913 336.07135808 C701.57104887 339.65102149 693.57400377 342.61274965 685.17530835 344.87995183 C684.49428051 345.06646307 683.81325268 345.2529743 683.11158764 345.44513738 C666.61321711 349.62647541 650.40386732 350.5679603 633.46609509 350.515221 C631.18960655 350.5192364 628.91312002 350.52456753 626.63663727 350.53108674 C620.43182484 350.54513989 614.2271445 350.54083839 608.02232575 350.53337359 C602.0022207 350.52910096 595.98214895 350.53898085 589.96205402 350.54852426 C577.65818475 350.56758696 565.35434519 350.57317494 553.05046284 350.5712074 C540.87189455 350.56936308 528.69335966 350.57461744 516.51479924 350.58888853 C515.37563447 350.59022334 515.37563447 350.59022334 514.21345627 350.59158513 C510.35583099 350.59615551 506.4982059 350.60087256 502.64058089 350.60565995 C494.79868483 350.61535562 486.95678772 350.62408843 479.11489022 350.63252199 C477.93768707 350.63378837 477.93768707 350.63378837 476.73670205 350.63508033 C458.08806749 350.65489726 439.43942941 350.66491401 420.79078686 350.67365301 C419.97556733 350.67403767 419.1603478 350.67442234 418.32042464 350.67481866 C411.71512715 350.67793475 405.10982965 350.68102589 398.50453213 350.68407637 C379.46876417 350.69288281 360.43299804 350.70410374 341.39723217 350.71662176 C340.58139718 350.71715511 339.76556219 350.71768846 338.92500492 350.71823797 C320.29272487 350.73045785 301.66044856 350.74475566 283.02817452 350.76417482 C282.24482252 350.76498968 281.46147053 350.76580453 280.65438059 350.76664408 C272.83348163 350.77481135 265.01258302 350.7832486 257.19168484 350.79213398 C240.40661599 350.81110682 223.62157096 350.82410999 206.83649082 350.82512873 C194.60704744 350.82592229 182.37762415 350.83332206 170.14818896 350.84765846 C163.52596567 350.85519378 156.90377314 350.85917126 150.28154385 350.85454023 C144.21780825 350.85034028 138.15415102 350.85529056 132.0904268 350.86744808 C129.89900729 350.87021176 127.70758036 350.86960936 125.51616342 350.86526699 C104.3950693 350.82679979 86.55225099 352.48675033 70.17530835 367.27448308 C55.56040951 382.16094254 54.25393369 400.14979368 54.23146069 419.91193426 C54.2221488 421.79531056 54.21197827 423.67868278 54.20101941 425.56205022 C54.17384752 430.64593882 54.15860819 435.72979991 54.14559138 440.8137418 C54.12990449 446.13754557 54.10313212 451.46129362 54.07756054 456.78505743 C54.03087085 466.85342954 53.99407939 476.92181226 53.96088767 486.99023694 C53.91542954 500.60484047 53.85459272 514.21937486 53.79463971 527.83392084 C53.70066541 549.26589641 53.62716201 570.69789219 53.55030835 592.12995183 C16.59030835 592.12995183 -20.36969165 592.12995183 -58.44969165 592.12995183 C-58.57060076 542.82142853 -58.57060076 542.82142853 -58.59617603 522.06159246 C-58.61393448 507.76216161 -58.6347414 493.46278402 -58.67601001 479.1633991 C-58.70605938 468.74639938 -58.72530128 458.32944313 -58.73195714 447.91240126 C-58.73584325 442.4047019 -58.74487478 436.89712683 -58.76688182 431.3894676 C-58.7874934 426.18810015 -58.79347652 420.98690625 -58.7890147 415.78550184 C-58.78982902 413.89310798 -58.79564582 412.0007073 -58.80730808 410.1083492 C-58.96595126 382.9988553 -53.99942469 357.69928883 -42.44969165 333.12995183 C-42.1042229 332.39502508 -41.75875415 331.66009832 -41.40281665 330.90290105 C-34.08027519 315.63280642 -24.16946894 302.32926174 -12.44969165 290.12995183 C-11.98514575 289.6343073 -11.52059986 289.13866277 -11.04197681 288.62799871 C17.18704565 258.58275399 57.43552498 240.4687074 98.55030835 238.12995183 C105.89444918 237.93747395 113.24381289 237.98789179 120.58982861 237.99192083 C122.85044831 237.98950069 125.11106758 237.98663778 127.37168622 237.9833715 C133.56980008 237.97563975 139.76790285 237.97400023 145.96602094 237.97332036 C151.96845058 237.9716663 157.97087397 237.96532864 163.97330004 237.95899891 C175.49797897 237.94694102 187.0226573 237.93826964 198.54734071 237.93196076 C216.84302816 237.92191183 235.13869708 237.90265034 253.43437337 237.88041837 C260.47959534 237.87188932 267.52481763 237.86362253 274.57003987 237.85531461 C275.74402884 237.8539271 275.74402884 237.8539271 276.94173476 237.85251156 C295.56011808 237.83053463 314.17850346 237.81073667 332.79689038 237.79206121 C334.01843365 237.79083169 334.01843365 237.79083169 335.26465456 237.78957733 C354.26538821 237.77049176 373.26612175 237.75352881 392.26686108 237.74121892 C393.08417335 237.74068926 393.90148562 237.74015959 394.74356493 237.73961387 C401.33187234 237.73536207 407.92017978 237.73118587 414.50848725 237.72702907 C441.6832768 237.70982466 468.8580409 237.68260675 496.03280859 237.6438687 C499.87170163 237.63840718 503.71059484 237.63307417 507.54948819 237.62782705 C508.68270588 237.62627548 508.68270588 237.62627548 509.83881685 237.62469256 C521.98577705 237.60838336 534.1327194 237.60283984 546.27968951 237.60152939 C558.48997666 237.60002363 570.7002154 237.58784821 582.9104812 237.56477298 C589.52265546 237.55258618 596.13476184 237.54559188 602.74695218 237.55148542 C608.80308098 237.55678673 614.85902962 237.5482842 620.91512837 237.52892904 C623.10276407 237.5243603 625.29041743 237.52481463 627.4780495 237.53087743 C648.11727459 237.58295982 665.97767735 235.18009442 681.49049389 220.31501043 C694.40795058 207.43043375 701.28489624 192.12136485 701.98780835 173.75495183 C701.4890783 156.65266737 694.81570414 139.96460444 682.6245271 127.88776433 C668.19921689 114.50249427 651.04725041 109.97345078 631.72557938 109.99128664 C630.53226414 109.98844442 629.33894891 109.9856022 628.1094726 109.98267385 C624.79533997 109.97578303 621.48125777 109.97333274 618.16712159 109.97274643 C614.56238788 109.97101522 610.95766539 109.96352863 607.35293823 109.95676988 C601.03473696 109.94571707 594.71653967 109.93834274 588.39833081 109.93337095 C579.00337778 109.92596143 569.60843866 109.91287746 560.21349383 109.89862519 C544.40988645 109.8748119 528.6062766 109.85560887 512.80266011 109.83902586 C497.15323624 109.8225896 481.50381699 109.80410884 465.85439885 109.78289258 C464.88166458 109.78157498 463.90893032 109.78025737 462.90671927 109.77889984 C457.96677041 109.77219783 453.0268216 109.76545924 448.08687281 109.75870658 C413.08974447 109.71093304 378.09261183 109.66775102 343.09547436 109.62726629 C309.09449461 109.58792341 275.09351843 109.54650258 241.09254467 109.50226629 C240.04463811 109.50090376 238.99673154 109.49954123 237.91707023 109.49813741 C227.39364077 109.48445213 216.87021137 109.47072459 206.34678201 109.45696607 C184.90900412 109.4289389 163.47122586 109.40119388 142.03344738 109.37361944 C141.04775519 109.37235124 140.062063 109.37108304 139.04650134 109.36977641 C73.21444281 109.28510873 7.38237616 109.20701821 -58.44969165 109.12995183 C-57.24874542 105.46362288 -56.00666887 101.99414561 -54.27975452 98.54283941 C-53.84932849 97.67779287 -53.41890247 96.81274633 -52.97543323 95.92148626 C-52.50730716 94.99085363 -52.03918109 94.060221 -51.55686939 93.10138738 C-51.06075153 92.10725332 -50.56463367 91.11311925 -50.05348194 90.08885992 C-48.41731565 86.812831 -46.77541898 83.53971189 -45.1332854 80.26667058 C-43.99481517 77.99092234 -42.85664072 75.71502609 -41.71874988 73.43898809 C-39.33637261 68.67579628 -36.95141373 63.9139107 -34.56419361 59.15314519 C-31.80217837 53.64487779 -29.04438052 48.13451565 -26.28896171 42.62294585 C-23.63724789 37.31890872 -20.98321024 32.01603754 -18.3279742 26.71376264 C-17.19792005 24.45684544 -16.06835658 22.19968249 -14.93928325 19.94227445 C-13.3659094 16.79768323 -11.78991408 13.65442062 -10.21311939 10.51154363 C-9.50789394 9.10041296 -9.50789394 9.10041296 -8.78842151 7.66077459 C-8.14701221 6.38435346 -8.14701221 6.38435346 -7.49264514 5.08214605 C-6.93378698 3.96694349 -6.93378698 3.96694349 -6.36363876 2.82921159 C-4.65962728 -0.33897847 -3.5046743 0.00400889 0 0 Z " fill="#000000" transform="translate(140.44969165325165,14.87004816532135)"/>
<path d="M0 0 C38.28 0 76.56 0 116 0 C115.99887207 13.30159424 115.99774414 26.60318848 115.99658203 40.30786133 C115.99718985 82.86549344 116.02722694 125.42305923 116.07579029 167.98066257 C116.08330636 174.59086791 116.09056184 181.2010735 116.09765625 187.8112793 C116.099073 189.127255 116.10048975 190.4432307 116.10194944 191.79908445 C116.12426934 213.10857437 116.12547831 234.41800166 116.11888863 255.72750417 C116.11259706 277.59221142 116.12898487 299.45681681 116.16643608 321.32149333 C116.18883134 334.81373977 116.1935263 348.30575418 116.17559664 361.79800829 C116.16499684 371.04953642 116.17642197 380.30087386 116.20516153 389.55236278 C116.22109394 394.89045518 116.22732024 400.2280939 116.20739174 405.56618309 C116.18934945 410.45650371 116.19905785 415.34596702 116.23053883 420.23621234 C116.23706265 422.00220295 116.23353293 423.76826645 116.21874608 425.5342072 C116.10672011 439.98582026 119.58167977 449.10686935 129.65625 459.71875 C143.22704841 472.92766045 158.70315892 478.48173285 177.44137096 478.38476086 C179.42061124 478.39248572 179.42061124 478.39248572 181.43983617 478.40036663 C185.08925481 478.41419305 188.73844667 478.40952353 192.38787445 478.40173779 C196.36297011 478.39657749 200.33801905 478.40884221 204.31310016 478.41886932 C211.27535888 478.43404506 218.23755556 478.43816248 225.1998291 478.43499184 C235.55241577 478.43032757 245.90493228 478.44282714 256.25750511 478.45882157 C273.67322757 478.4852433 291.08893412 478.49777815 308.50467491 478.50238609 C325.74730151 478.50699366 342.98990602 478.51778105 360.23252296 478.53681374 C361.30479924 478.53799386 362.37707551 478.53917399 363.481845 478.54038988 C368.92744132 478.54641534 374.37303751 478.55255113 379.81863365 478.55872939 C418.38518678 478.60228636 456.95173938 478.63199974 495.51831055 478.65356445 C532.98413893 478.67454537 570.44995416 478.70180152 607.91577148 478.73754883 C609.07072397 478.73864831 610.22567646 478.73974778 611.41562751 478.74088058 C623.01418334 478.75192896 634.61273906 478.76310486 646.21129468 478.7743742 C669.83868246 478.79732804 693.46607101 478.81943072 717.09346008 478.84101868 C718.17979832 478.8420123 719.26613656 478.84300591 720.38539413 478.84402964 C792.92358532 478.91027912 865.46179194 478.95668757 938 479 C937.40908244 482.5779872 936.45380444 485.46445936 934.82969666 488.70137024 C934.37395767 489.6169722 933.91821869 490.53257416 933.44866943 491.47592163 C932.94732483 492.46782501 932.44598022 493.45972839 931.92944336 494.48168945 C931.40260452 495.53580521 930.87576569 496.58992096 930.33296204 497.67597961 C928.89111021 500.55795401 927.44397565 503.43719913 925.99443507 506.31531167 C924.47933996 509.3267212 922.97106134 512.3415408 921.46205139 515.35600281 C918.60528116 521.06022693 915.74240796 526.761365 912.87732083 532.46141547 C909.61505961 538.9523812 906.35962979 545.4467643 903.10476482 551.94144118 C896.4107624 565.29810629 889.70820776 578.65046296 883 592 C815.02105958 592.03428981 747.04211812 592.06608729 679.06317139 592.08468628 C678.05656045 592.08496239 677.04994951 592.08523851 676.01283521 592.08552299 C654.13482393 592.09150924 632.25681257 592.09704954 610.37880106 592.10213066 C599.64934392 592.10462526 588.9198868 592.10721838 578.19042969 592.10986328 C577.1227375 592.1101248 576.05504531 592.11038632 574.95499882 592.11065576 C540.36749536 592.1191737 505.77999845 592.13419277 471.19249896 592.15259444 C435.64008371 592.17147506 400.08767209 592.18377447 364.53525192 592.18782998 C359.51012186 592.18840626 354.4849918 592.18905754 349.45986176 592.18975449 C348.47087447 592.18988933 347.48188719 592.19002418 346.46293059 592.19016311 C330.56300933 592.19252367 314.66309929 592.20179203 298.76318259 592.21366407 C282.76627177 592.22546037 266.76937205 592.2299305 250.77245703 592.22700275 C241.27629389 592.22548523 231.78017144 592.22950456 222.28401568 592.24159509 C215.92861499 592.24913159 209.57324074 592.24930166 203.21783818 592.24366363 C199.60430321 592.24066348 195.99084483 592.24069305 192.37731829 592.24976636 C173.23359642 592.29501789 154.19735109 592.08678462 135.4375 587.8125 C134.00845337 587.49212769 134.00845337 587.49212769 132.55053711 587.1652832 C117.13104469 583.54494295 102.90153995 577.50351893 89 570 C87.97777344 569.45859375 86.95554687 568.9171875 85.90234375 568.359375 C72.24138089 560.78425158 60.21258944 550.79730835 49 540 C48.3709375 539.4225 47.741875 538.845 47.09375 538.25 C28.16096599 520.38888301 13.87807889 494.57828148 6 470 C5.74503903 469.23561745 5.49007806 468.4712349 5.227391 467.68368924 C-1.4678987 446.90724178 -0.82701933 426.04812504 -0.69639373 404.47672904 C-0.67017953 399.03403986 -0.67927236 393.59138577 -0.68380737 388.14865112 C-0.68693456 378.74718316 -0.66830938 369.34596744 -0.63438034 359.94456291 C-0.58535869 346.35220399 -0.56996528 332.75996548 -0.56245239 319.16752774 C-0.54936104 297.1081169 -0.50954173 275.04884012 -0.45263672 252.98950195 C-0.39745753 231.57674746 -0.35496921 210.16403192 -0.32958984 188.7512207 C-0.32880069 188.08965398 -0.32801153 187.42808725 -0.32719846 186.74647305 C-0.31850128 179.44257174 -0.31015054 172.13867005 -0.30194163 164.83476818 C-0.23986729 109.88972633 -0.12932511 54.94493279 0 0 Z " fill="#000000" transform="translate(1908,15)"/>
<path d="M0 0 C155.1 0 310.2 0 470 0 C469.21075382 3.94623089 468.56174519 6.24932919 466.82969666 9.70137024 C466.37395767 10.6169722 465.91821869 11.53257416 465.44866943 12.47592163 C464.94732483 13.46782501 464.44598022 14.45972839 463.92944336 15.48168945 C463.40260452 16.53580521 462.87576569 17.58992096 462.33296204 18.67597961 C460.89111021 21.55795401 459.44397565 24.43719913 457.99443507 27.31531167 C456.47933996 30.3267212 454.97106134 33.3415408 453.46205139 36.35600281 C450.60528116 42.06022693 447.74240796 47.761365 444.87732083 53.46141547 C441.61505961 59.9523812 438.35962979 66.4467643 435.10476482 72.94144118 C428.4107624 86.29810629 421.70820776 99.65046296 415 113 C371.64152228 113.03038001 328.28304402 113.05067734 284.92455721 113.06185675 C282.44533443 113.06249797 279.96611166 113.06315684 277.48688889 113.06381607 C190.82328678 113.08649294 104.16231663 113.03504142 17.5 112.5 C16.52898897 112.49402628 15.55797793 112.48805257 14.55754232 112.48189783 C-8.96175214 112.3369132 -32.48093796 112.1788678 -56 112 C-48.51300243 95.70715706 -40.25228883 79.95442506 -32 64 C-21.44 42.88 -10.88 21.76 0 0 Z " fill="#27A9E0" transform="translate(2376,494)"/>
<path d="M0 0 C61.38 0 122.76 0 186 0 C171.37031113 36.57422216 146.73343716 80.53312569 131 112 C69.29 112 7.58 112 -56 112 C-48.34215866 95.83344607 -40.21840702 79.88892023 -32 64 C-21.44 42.88 -10.88 21.76 0 0 Z " fill="#26A9DF" transform="translate(2376,494)"/>
<path d="M0 0 C32.34 0 64.68 0 98 0 C87.66096353 21.82685476 87.66096353 21.82685476 83.75561523 29.60229492 C83.29856988 30.51650617 82.84152452 31.43071741 82.37062931 32.37263203 C80.9351552 35.24285198 79.49696633 38.11170045 78.05859375 40.98046875 C77.15415412 42.78787208 76.24989815 44.59536733 75.3458252 46.4029541 C72.04525921 52.9989086 68.74118071 59.593105 65.4375 66.1875 C58.033125 80.975625 50.62875 95.76375 43 111 C104.38 111.33 165.76 111.66 229 112 C229 112.33 229 112.66 229 113 C133.96 113 38.92 113 -59 113 C-57.02 112.505 -57.02 112.505 -55 112 C-53.93768618 109.37640413 -53.93768618 109.37640413 -53 106 C-51.58247382 102.83907327 -50.00545149 99.75800329 -48.44604492 96.66503906 C-47.75539696 95.28330505 -47.75539696 95.28330505 -47.05079651 93.87365723 C-45.53113976 90.83573424 -44.00583532 87.8006845 -42.48046875 84.765625 C-41.41878337 82.64598833 -40.35745344 80.52617358 -39.29646301 78.40618896 C-36.50221964 72.82533209 -33.70318555 67.24689145 -30.90313721 61.66894531 C-28.06732968 56.01770925 -25.23598344 50.36423927 -22.40429688 44.7109375 C-17.82124208 35.56237999 -13.23554319 26.41515412 -8.64602661 17.26983643 C-5.75878586 11.51581537 -2.87906708 5.75813415 0 0 Z " fill="#FEFEFE" transform="translate(2562,494)"/>
</svg>
